# xmcd CD database file
#
# Track frame offsets:
#        150
#        12095
#        30082
#        48987
#        61675
#        74490
#        89867
#        108225
#        118140
#        133060
#        151882
#        165605
#        174775
#        191175
#        204172
#        219092
#        232505
#        252015
#        269025
#        284555
#
# Disc length: 4047 seconds
#
# Revision: 0
# Processed by: cddbd v1.5.2PL0 Copyright (c) Steve Scherf et al.
# Submitted via: CUERipper 2.1.6
#
DISCID=0d0fcd14
DTITLE=Zayazd - Wypij do dna
DYEAR=1991
DGENRE=Country
TTITLE0=Wypij do dna
TTITLE1=Zachodzi sloneczko
TTITLE2=Pojedynek z diablem
TTITLE3=Zielona aleja
TTITLE4=Czas Batorych
TTITLE5=Moja miss
TTITLE6=Goralska opowiesc
TTITLE7=Noc poslubna Mietka W w Pospiechu Wielkim
TTITLE8=Przydrozny zajazd
TTITLE9=Kiedy gwiazda odmieni
TTITLE10=I to by bylo to
TTITLE11=Ujrzalem kiedys wilka
TTITLE12=Dziwny sen
TTITLE13=Wybacz stary
TTITLE14=Najdalej od brzegu
TTITLE15=Fartuszek
TTITLE16=I znow pogodny ranek
TTITLE17=Hej ludzie
TTITLE18=Amazing Grace
TTITLE19=A kaj som Janicku
EXTD=
EXTT0=
EXTT1=
EXTT2=
EXTT3=
EXTT4=
EXTT5=
EXTT6=
EXTT7=
EXTT8=
EXTT9=
EXTT10=
EXTT11=
EXTT12=
EXTT13=
EXTT14=
EXTT15=
EXTT16=
EXTT17=
EXTT18=
EXTT19=
PLAYORDER=
